<svg xmlns="http://www.w3.org/2000/svg" style="left: -0.57px; top: 0.5px; overflow: hidden; position: relative;" width="512" height="342" version="1.1"><desc style="-webkit-tap-highlight-color: rgba(0, 0, 0, 0);">Created with Raphaël 2.1.0</desc><defs style="-webkit-tap-highlight-color: rgba(0, 0, 0, 0);" /><path style="opacity: 1; -webkit-tap-highlight-color: rgba(0, 0, 0, 0);" opacity="1" fill="#8e08ff" stroke="#000000" stroke-width="0" d="M 122 157.367 C 122 156.468 123.575 152.643 125.5 148.865 C 127.425 145.088 129 141.332 129 140.518 C 129 138.874 133.266 137.429 134.984 138.49 C 135.587 138.863 135.803 140.045 135.463 141.117 C 134.858 143.022 134.919 143.02 138.172 141.036 C 141.677 138.9 145.498 138.379 146.445 139.91 C 146.754 140.411 145.407 143.837 143.451 147.524 C 141.495 151.211 140.105 154.438 140.362 154.695 C 142.155 156.488 152 144.72 152 140.782 C 152 138.704 156.642 137.242 158.223 138.823 C 158.992 139.592 158.23 141.936 155.557 147.024 C 153.498 150.941 152.042 154.375 152.321 154.655 C 153.374 155.707 157.028 152.818 159.808 148.735 C 162.653 144.556 170.218 130.15 171.353 126.75 C 171.987 124.85 176.457 124.312 177.506 126.009 C 177.849 126.565 176.262 130.403 173.979 134.538 L 169.828 142.057 L 173.852 139.96 C 177.05 138.293 178.298 138.089 179.938 138.967 C 184.277 141.289 181.64 147.613 174.899 151.052 C 170.706 153.191 170.521 155 174.495 155 C 176.809 155 178.907 153.162 187.906 143.25 C 191.233 139.586 192.323 139 195.811 139 C 201.188 139 203.291 141.151 202.813 146.161 C 202.397 150.529 203.365 150.945 206.686 147.826 C 207.958 146.63 209 146.101 209 146.651 C 209 148.106 204.866 151.659 202.25 152.452 C 201.012 152.828 200 153.518 200 153.986 C 200 155.582 193.273 159 190.132 159 C 186.712 159 183 156.04 183 153.313 C 183 151.943 182.483 152.108 180.25 154.191 C 174.752 159.318 168.92 160.587 167.035 157.066 C 165.341 153.9 165.833 152.312 168.901 151.041 C 173.263 149.234 176.674 145.274 175.167 143.767 C 172.99 141.59 168.765 145.199 165.111 152.359 C 162.309 157.848 161.291 159 159.244 159 C 157.158 159 156.84 158.615 157.232 156.564 L 157.698 154.128 L 154.404 156.641 C 150.42 159.68 146.642 159.501 146.181 156.252 L 145.861 154.004 L 142.586 156.502 C 139.023 159.219 134.521 159.8 133.695 157.648 C 133.41 156.905 134.33 153.748 135.739 150.632 C 137.149 147.517 138.047 144.714 137.737 144.403 C 136.262 142.929 132.527 146.787 129.814 152.584 C 127.344 157.862 126.385 159 124.406 159 C 122.847 159 122 158.425 122 157.367 Z M 195.786 153.814 C 196.701 152.899 196.598 152.213 195.334 150.817 C 194.433 149.821 193.734 147.655 193.781 146.003 C 193.898 141.871 193.228 142.23 190.871 147.559 C 189.279 151.157 189.106 152.423 190.049 153.559 C 191.5 155.307 194.174 155.426 195.786 153.814 Z M 199.816 144.721 C 199.642 143.5 199.05 142.5 198.5 142.5 C 197.263 142.5 196.614 146.554 197.488 148.823 C 198.084 150.368 198.213 150.36 199.133 148.721 C 199.682 147.743 199.989 145.943 199.816 144.721 Z M 156.053 135.564 C 154.324 133.48 156.435 130 159.428 130 C 162.421 130 163.278 132.158 161.368 134.885 C 159.643 137.348 157.736 137.591 156.053 135.564 Z" /></svg>